<?xml version="1.0" standalone="no"?>
<!DOCTYPE svg PUBLIC "-//W3C//DTD SVG 20010904//EN"
 "http://www.w3.org/TR/2001/REC-SVG-20010904/DTD/svg10.dtd">
<svg version="1.0" xmlns="http://www.w3.org/2000/svg"
 width="1536.000000pt" height="1536.000000pt" viewBox="0 0 1536.000000 1536.000000"
 preserveAspectRatio="xMidYMid meet">
<metadata>
Created by potrace 1.10, written by Peter Selinger 2001-2011
</metadata>
<g transform="translate(0.000000,1536.000000) scale(0.100000,-0.100000)"
fill="#000000" stroke="none">
<path d="M3436 13892 c-497 -2 -642 -5 -648 -15 -9 -14 -11 -1268 -2 -1291 6
-14 73 -16 660 -16 l654 0 -2 -662 -3 -663 -648 -1 c-382 -1 -652 -5 -658 -11
-5 -5 -10 -278 -11 -658 l-3 -650 -655 -5 -655 -5 -5 -655 -5 -655 -655 -5
-655 -5 -3 -1974 c-2 -1573 0 -1976 10 -1983 15 -9 1268 -11 1292 -2 14 6 16
131 16 1320 l0 1314 23 5 c12 3 308 4 657 3 l635 -3 3 -1309 c1 -951 5 -1313
13 -1323 10 -11 125 -13 662 -11 l651 3 0 652 c1 358 5 655 9 660 13 12 5244
15 5268 3 19 -10 19 -27 19 -653 0 -487 3 -646 12 -655 15 -15 1274 -17 1298
-2 13 8 15 165 15 1312 0 717 4 1309 8 1316 6 9 145 12 637 12 345 0 635 -3
644 -6 14 -6 16 -131 16 -1313 0 -1003 3 -1310 12 -1319 15 -15 1269 -17 1297
-2 17 9 18 98 17 1982 l-1 1973 -660 5 c-363 3 -661 6 -662 8 -2 1 -4 296 -5
655 l-3 652 -655 5 c-360 3 -656 6 -657 8 -2 1 -3 294 -3 651 0 497 -3 652
-12 657 -7 4 -301 8 -654 8 -353 1 -646 5 -651 9 -7 8 -13 479 -13 1100 l0
217 -648 0 c-491 0 -651 -3 -660 -12 -9 -9 -12 -169 -12 -660 0 -356 -3 -649
-7 -650 -33 -7 -2592 -3 -2605 4 -17 8 -18 49 -18 651 0 487 -3 646 -12 655
-9 9 -169 12 -659 12 l-647 0 -6 118 c-4 64 -6 329 -5 587 2 599 2 612 -13
616 -7 2 -301 3 -652 1z m1989 -4632 l0 -655 -654 -3 c-462 -1 -657 1 -661 9
-8 12 -12 1265 -4 1292 5 16 43 17 662 15 l657 -3 0 -655z m3957 9 c2 -358 0
-655 -3 -660 -3 -5 -274 -8 -660 -7 l-654 3 -3 645 c-1 355 0 651 3 658 3 9
145 12 660 12 l655 0 2 -651z"/>
<path d="M9391 13876 c-8 -9 -10 -190 -9 -657 l3 -644 649 -3 c471 -1 653 1
662 9 19 16 21 1278 2 1297 -19 19 -1291 17 -1307 -2z"/>
<path d="M4106 4614 c-11 -29 -7 -1264 4 -1285 10 -18 28 -19 659 -19 582 0
649 2 655 16 8 20 8 1268 0 1288 -6 14 -73 16 -659 16 -586 0 -653 -2 -659
-16z"/>
<path d="M8065 4608 c-3 -13 -4 -309 -3 -658 l3 -635 655 0 655 0 3 658 2 657
-655 0 -655 0 -5 -22z"/>
</g>
</svg>
