<?xml version="1.0" standalone="no"?>
<!DOCTYPE svg PUBLIC "-//W3C//DTD SVG 20010904//EN"
 "http://www.w3.org/TR/2001/REC-SVG-20010904/DTD/svg10.dtd">
<svg version="1.0" xmlns="http://www.w3.org/2000/svg"
 width="512.000000pt" height="512.000000pt" viewBox="0 0 512.000000 512.000000"
 preserveAspectRatio="xMidYMid meet">
<metadata>
Created by potrace 1.10, written by Peter Selinger 2001-2011
</metadata>
<g transform="translate(0.000000,512.000000) scale(0.100000,-0.100000)"
fill="#00cddb" stroke="none">
<path d="M930 4410 l0 -220 220 0 220 0 0 -220 0 -220 -220 0 -220 0 0 -220 0
-220 -220 0 -220 0 0 -220 0 -220 -220 0 -220 0 0 -660 0 -660 220 0 220 0 0
440 0 440 220 0 220 0 0 -440 0 -440 220 0 220 0 0 -220 0 -220 220 0 220 0 0
220 0 220 -220 0 -220 0 0 220 0 220 883 -2 882 -3 3 -217 2 -218 220 0 220 0
0 440 0 440 215 0 215 0 0 -440 0 -440 223 0 223 0 1 660 0 660 -223 0 -224 0
0 220 0 220 -220 0 -220 0 0 220 0 220 -220 0 -220 0 0 220 0 220 220 0 220 0
0 220 0 220 -220 0 -220 0 0 -220 0 -220 -220 0 -220 0 0 -220 0 -220 -437 2
-438 3 -3 218 -2 217 -220 0 -220 0 0 220 0 220 -220 0 -220 0 0 -220z m880
-1320 l0 -220 -220 0 -220 0 0 220 0 220 220 0 220 0 0 -220z m1320 0 l0 -220
-220 0 -220 0 0 220 0 220 220 0 220 0 0 -220z"/>
<path d="M2690 1330 l0 -220 220 0 220 0 0 220 0 220 -220 0 -220 0 0 -220z"/>
</g>
</svg>
