<?xml version="1.0" standalone="no"?>
<!DOCTYPE svg PUBLIC "-//W3C//DTD SVG 20010904//EN"
 "http://www.w3.org/TR/2001/REC-SVG-20010904/DTD/svg10.dtd">
<svg version="1.0" xmlns="http://www.w3.org/2000/svg"
 width="720.000000pt" height="540.000000pt" viewBox="0 0 720.000000 540.000000"
 preserveAspectRatio="xMidYMid meet">

<g transform="translate(0.000000,540.000000) scale(0.100000,-0.100000)"
fill="#000000" stroke="none">
<path d="M0 4570 c0 -552 3 -830 10 -830 6 0 49 26 95 57 65 43 88 54 97 45 7
-7 20 -12 29 -12 9 0 22 -7 30 -16 11 -14 10 -15 -6 -12 -12 2 -20 -3 -20 -11
0 -8 -7 -16 -15 -18 -13 -4 -13 -3 0 6 32 23 -5 9 -58 -21 -48 -27 -59 -30
-83 -20 -16 5 -31 7 -33 3 -6 -10 61 -34 73 -26 6 3 24 -3 42 -14 30 -18 35
-19 49 -5 8 8 40 30 70 48 30 18 54 38 53 44 -3 13 9 14 46 3 l24 -7 -29 -19
c-16 -11 -36 -24 -45 -30 -9 -5 -35 -23 -59 -38 -28 -19 -79 -37 -154 -54 -61
-13 -113 -27 -115 -29 -13 -13 15 -10 114 12 96 20 168 46 185 64 13 15 70 50
80 50 7 0 18 7 25 16 11 15 23 13 130 -23 65 -21 121 -45 123 -53 3 -7 0 -10
-5 -7 -5 3 -21 -5 -36 -19 -14 -13 -29 -24 -33 -24 -3 0 -19 -9 -34 -20 -18
-13 -31 -16 -35 -10 -3 5 -11 10 -18 10 -8 0 -8 -3 1 -12 17 -17 15 -28 -5
-28 -15 0 -16 -2 -3 -10 10 -6 17 -5 23 5 4 8 16 15 26 15 11 0 21 6 24 13 3
6 27 23 53 37 27 14 54 31 60 38 11 15 74 10 103 -9 14 -9 14 -10 -2 -5 -34
11 -64 -4 -64 -30 0 -17 5 -24 18 -24 27 0 69 21 69 35 0 7 49 -4 133 -31 72
-23 145 -45 161 -49 15 -3 26 -8 23 -11 -9 -9 -67 -13 -67 -5 0 7 -65 31 -83
31 -3 0 -12 -6 -19 -13 -7 -7 -41 -30 -76 -52 -62 -38 -63 -39 -40 -51 13 -8
44 -20 70 -29 43 -15 49 -15 71 -1 13 9 30 27 37 41 8 14 24 28 37 30 13 3 34
7 48 10 18 4 25 1 25 -10 0 -8 -9 -15 -20 -15 -11 0 -20 -4 -20 -10 0 -5 15
-10 34 -10 36 0 53 21 41 52 -5 12 5 15 55 15 33 1 63 -3 65 -8 3 -4 -5 -26
-19 -48 -28 -43 -30 -44 -176 -61 -123 -15 -136 -18 -117 -33 17 -14 38 -95
27 -102 -5 -3 -11 1 -13 7 -4 9 -8 10 -14 2 -4 -6 -37 -16 -73 -23 -87 -17
-146 -41 -128 -53 10 -7 9 -11 -6 -23 -18 -14 -18 -14 0 -14 11 1 35 -2 54 -6
23 -4 56 0 95 12 72 23 110 14 120 -26 11 -45 22 -51 89 -46 l61 5 -40 -15
c-22 -9 -89 -30 -149 -47 l-108 -31 -92 44 c-109 52 -101 47 -93 56 4 4 13 1
19 -5 7 -7 17 -12 23 -12 5 0 2 5 -8 11 -10 6 -22 20 -27 32 l-9 22 -7 -22
c-3 -13 -10 -23 -15 -23 -5 0 -154 73 -332 162 -177 90 -325 164 -329 166 -5
2 -8 -51 -8 -117 0 -67 4 -121 9 -121 5 0 11 5 13 12 5 13 62 16 92 5 24 -10
11 -24 -29 -31 -16 -3 -42 -11 -57 -17 l-28 -11 0 -1584 0 -1584 3600 0 3600
0 0 688 0 687 -26 -45 c-97 -165 -136 -230 -144 -235 -5 -3 -44 -49 -87 -103
-43 -53 -87 -108 -99 -122 -12 -14 -59 -70 -104 -125 -205 -252 -181 -227
-222 -221 -20 3 -146 54 -280 112 -134 58 -360 157 -503 219 -391 170 -1109
486 -1305 575 -58 26 -148 67 -200 90 -52 24 -124 56 -160 72 -36 17 -85 38
-110 48 -25 10 -108 48 -185 84 l-140 66 3 33 c2 21 -4 42 -16 57 -17 22 -18
33 -10 99 10 84 0 121 -73 256 -32 61 -74 203 -68 231 1 5 -3 22 -9 37 -7 16
-12 41 -12 57 0 16 -6 33 -13 37 -7 4 -26 30 -43 57 -57 96 -116 137 -269 186
-81 25 -146 51 -158 61 -5 3 1 25 12 47 12 23 21 52 21 65 0 24 27 57 47 57
12 0 23 32 23 68 0 12 -4 22 -9 22 -18 0 -20 48 -6 99 15 50 15 52 -12 108
-15 32 -26 66 -25 76 1 9 -2 17 -7 17 -14 0 -3 101 14 126 19 29 19 44 0 58
-12 10 -12 13 0 30 15 19 17 19 132 2 163 -25 296 -50 443 -86 69 -17 140 -33
159 -36 19 -3 52 -12 74 -20 22 -8 50 -14 62 -14 35 0 85 -21 85 -35 0 -8 8
-18 17 -24 14 -8 15 -12 4 -25 -10 -12 -11 -19 -2 -30 9 -11 8 -15 -4 -20 -11
-4 -15 -16 -13 -43 3 -33 0 -38 -21 -41 -33 -5 -53 17 -23 24 19 6 22 13 22
55 0 36 -4 49 -14 49 -8 0 -16 6 -19 13 -2 6 -12 -5 -21 -27 -13 -32 -19 -37
-39 -32 -13 3 -27 3 -31 -1 -4 -4 -19 -9 -34 -11 -38 -5 -41 -12 -6 -12 17 0
35 5 42 12 9 9 12 9 12 -1 0 -20 -27 -41 -53 -41 -17 0 -26 -7 -31 -22 -3 -13
-2 -26 2 -30 13 -13 319 -85 326 -77 2 2 6 16 10 31 5 23 2 30 -24 43 -30 15
-30 17 -24 68 4 29 12 58 18 66 8 11 8 15 -2 18 -18 7 -4 23 19 23 10 0 19 5
19 10 0 6 10 8 23 5 12 -3 34 -7 50 -9 33 -3 48 -16 19 -16 -13 0 -22 -6 -22
-15 0 -9 -9 -15 -24 -15 -20 0 -23 -4 -19 -22 3 -13 10 -29 16 -35 5 -7 9 -31
9 -53 -1 -36 2 -40 24 -40 21 0 24 5 24 34 0 26 -5 35 -22 40 -21 6 -22 7 -6
20 10 7 14 16 10 21 -4 4 3 4 16 1 20 -7 22 -4 22 29 0 34 2 37 23 31 12 -3
59 -13 104 -23 46 -9 79 -21 76 -26 -4 -6 -1 -7 6 -2 7 4 50 -1 96 -10 64 -14
83 -22 82 -34 -2 -32 14 -71 28 -71 8 0 15 -7 15 -15 0 -8 6 -12 14 -9 14 5
25 37 31 90 3 35 8 37 66 29 45 -6 50 -9 36 -20 -26 -19 -22 -52 8 -57 13 -3
27 -3 30 0 10 10 5 50 -7 55 -7 3 -4 6 7 6 22 1 118 -27 98 -28 -8 -1 -13 -14
-13 -31 0 -23 4 -30 20 -30 34 0 35 1 42 21 6 15 2 22 -15 29 -20 8 -20 9 -2
9 24 1 177 -28 183 -34 3 -3 0 -29 -6 -57 -6 -29 -15 -78 -19 -108 -6 -44 -12
-55 -28 -58 -18 -2 -18 -2 -2 8 27 17 22 57 -10 64 -17 5 -29 3 -34 -6 -13
-19 -11 -46 4 -52 21 -10 -53 4 -183 35 -69 17 -144 33 -167 36 -39 5 -41 7
-32 30 13 35 11 53 -5 47 -8 -3 -24 0 -36 6 -24 13 -36 6 -42 -24 -2 -10 5
-23 17 -29 11 -7 36 -22 55 -34 20 -12 83 -34 140 -49 58 -14 119 -34 137 -44
18 -11 42 -17 53 -15 11 2 40 -3 64 -12 26 -10 50 -13 62 -8 10 4 36 7 57 6
30 -2 37 1 37 16 0 10 3 29 7 42 5 20 3 23 -10 18 -9 -3 -19 -2 -23 4 -3 5
-14 7 -25 4 -22 -7 -26 13 -4 21 8 4 12 10 9 15 -3 5 9 6 25 3 27 -6 32 -3 41
20 14 38 13 56 -5 56 -8 0 -15 7 -15 16 0 10 6 14 14 11 7 -3 18 -1 23 4 7 7
53 1 134 -16 68 -14 181 -38 252 -52 102 -22 127 -30 127 -44 0 -21 -40 -222
-45 -228 -2 -2 -17 0 -32 5 l-28 8 28 4 c22 3 27 8 27 31 0 23 -5 30 -27 34
-38 7 -46 0 -40 -38 l5 -33 -36 9 c-20 5 -102 25 -182 44 -204 51 -220 53
-220 27 0 -27 8 -31 65 -37 25 -2 51 -8 58 -12 6 -4 34 -10 62 -14 27 -4 111
-21 185 -37 89 -20 139 -27 147 -20 7 6 32 5 69 -1 32 -6 59 -11 61 -11 2 0
-1 9 -7 19 -5 11 -10 32 -10 46 0 22 -3 25 -20 20 -11 -3 -20 -2 -20 4 0 5
-12 12 -27 14 -27 4 -27 4 -5 12 12 4 22 12 22 17 0 5 12 8 28 7 36 -4 71 16
56 31 -14 14 -6 50 11 50 24 0 75 -22 70 -31 -3 -4 -3 -18 0 -31 5 -19 14 -23
50 -26 24 -1 54 -7 67 -12 17 -7 4 -8 -44 -4 -55 5 -68 4 -68 -8 0 -8 -11 -25
-25 -38 -30 -28 -31 -32 -5 -48 33 -20 244 -72 254 -62 5 5 12 31 16 57 6 38
4 50 -9 60 -13 10 -11 12 17 8 28 -3 35 1 45 22 13 28 10 29 177 -6 52 -11 97
-18 101 -15 4 2 35 -5 69 -16 34 -11 66 -18 70 -15 4 3 21 -2 36 -10 16 -8 39
-15 52 -15 19 0 22 -5 20 -26 -2 -15 3 -29 10 -31 7 -3 12 5 12 21 0 30 1 30
69 14 42 -9 51 -15 51 -33 0 -28 22 -47 44 -39 10 4 16 1 16 -9 0 -8 -11 -18
-25 -21 -24 -6 -36 -36 -15 -36 11 0 9 -24 -11 -88 -7 -26 -18 -42 -28 -42
-12 0 -12 -3 -3 -12 15 -15 16 -32 2 -23 -6 4 -26 8 -44 10 -26 2 -35 -1 -39
-15 -3 -12 2 -20 16 -24 16 -4 19 -8 11 -16 -7 -7 -19 -8 -36 -1 -34 13 -41
26 -23 41 14 11 14 15 -1 31 -16 18 -15 20 19 34 20 8 40 15 45 15 12 0 32 83
23 99 -6 10 -11 5 -19 -18 -7 -21 -18 -31 -31 -31 -25 0 -36 16 -16 24 17 6
21 66 5 66 -5 0 -10 -8 -10 -19 0 -24 -37 -71 -56 -71 -8 0 -29 7 -46 16 -28
15 -30 19 -26 59 5 36 2 44 -13 48 -24 7 -34 -9 -12 -17 15 -6 13 -10 -11 -30
-27 -21 -28 -26 -20 -62 4 -21 8 -45 7 -51 0 -7 3 -11 7 -8 4 2 16 -3 26 -11
18 -15 17 -15 -11 -10 -16 3 -39 8 -50 11 -17 5 -22 0 -31 -33 l-10 -39 75
-21 c343 -96 403 -111 418 -105 6 3 15 18 18 34 4 16 11 29 17 29 6 0 3 9 -8
21 -11 13 -17 32 -16 50 3 24 1 28 -14 22 -14 -5 -16 -3 -9 13 5 10 9 36 8 57
0 33 3 38 19 34 25 -7 37 22 16 37 -25 18 4 39 37 26 35 -13 35 -13 35 10 0
11 5 20 10 20 6 0 10 -6 10 -12 0 -9 4 -8 10 2 5 8 10 47 10 87 0 64 -2 72
-17 67 -17 -5 -17 -5 0 9 13 11 17 30 17 85 0 47 -4 72 -12 75 -10 4 -10 6 0
6 9 1 12 236 12 1141 l0 1140 -3600 0 -3600 0 0 -830z m2290 450 c0 -5 -4 -10
-9 -10 -6 0 -13 5 -16 10 -3 6 1 10 9 10 9 0 16 -4 16 -10z m2607 -6 c-3 -3
-12 -4 -19 -1 -8 3 -5 6 6 6 11 1 17 -2 13 -5z m113 -70 c0 -11 -6 -14 -16
-10 -9 3 -27 6 -40 6 -39 0 -19 17 21 18 26 1 35 -3 35 -14z m-180 -24 c0 -5
-4 -10 -9 -10 -6 0 -13 5 -16 10 -3 6 1 10 9 10 9 0 16 -4 16 -10z m116 -88
c14 -9 28 -52 17 -52 -5 0 -17 14 -26 30 -18 29 -14 38 9 22z m54 -40 c0 -7
-4 -10 -10 -7 -5 3 -10 16 -10 28 0 18 2 19 10 7 5 -8 10 -21 10 -28z m-2823
-68 c-3 -3 -12 -4 -19 -1 -8 3 -5 6 6 6 11 1 17 -2 13 -5z m1429 -35 c3 -6 1
-16 -5 -22 -8 -8 -11 -8 -11 2 0 9 -8 11 -27 6 -23 -5 -25 -4 -14 9 15 18 47
21 57 5z m2189 -93 c16 -12 17 -15 4 -27 -8 -8 -29 -15 -46 -16 -28 -2 -33 1
-33 21 0 12 3 26 7 29 11 12 48 8 68 -7z m155 -25 c0 -5 16 -15 35 -21 44 -15
46 -30 3 -24 -58 7 -102 14 -105 18 -2 2 -1 11 3 20 7 17 64 23 64 7z m-3070
-146 c-7 -8 -18 -15 -24 -15 -6 0 -2 7 8 15 25 19 32 19 16 0z m14 -110 c-6
-16 -24 -21 -24 -7 0 11 11 22 21 22 5 0 6 -7 3 -15z m-107 -93 c-9 -8 -22
-12 -30 -9 -20 8 -10 54 17 73 20 14 21 13 24 -17 2 -19 -3 -38 -11 -47z
m-2537 -21 c0 -6 -4 -13 -10 -16 -5 -3 -7 -19 -3 -35 3 -19 1 -30 -6 -30 -6 0
-11 18 -11 45 0 33 4 45 15 45 8 0 15 -4 15 -9z m29 -75 c-9 -8 -10 -7 -5 7 3
10 7 26 7 35 1 9 4 6 6 -7 3 -13 -1 -28 -8 -35z m6446 -26 c-8 -13 -57 -22
-67 -12 -6 6 -5 17 3 29 11 18 14 19 41 6 15 -8 26 -18 23 -23z m-85 0 c0 -5
-8 -10 -17 -10 -15 0 -16 2 -3 10 19 12 20 12 20 0z m-3852 -12 c-2 -6 -10
-14 -16 -16 -7 -2 -10 2 -6 12 7 18 28 22 22 4z m-2555 -39 c4 -16 3 -18 -9
-8 -7 6 -11 15 -8 20 8 13 11 11 17 -12z m2547 -14 c0 -14 -4 -25 -10 -25 -11
0 -14 33 -3 43 11 11 13 8 13 -18z m3930 -22 c2 -2 -2 -8 -10 -13 -17 -10 -53
7 -44 21 5 9 41 4 54 -8z m-690 -8 c0 -8 -4 -15 -10 -15 -5 0 -10 7 -10 15 0
8 5 15 10 15 6 0 10 -7 10 -15z m-5542 -6 c-2 -6 -8 -10 -13 -10 -5 0 -11 4
-13 10 -2 6 4 11 13 11 9 0 15 -5 13 -11z m272 -20 c0 -11 -4 -17 -10 -14 -5
3 -10 13 -10 21 0 8 5 14 10 14 6 0 10 -9 10 -21z m590 5 c0 -8 -4 -12 -10 -9
-5 3 -10 10 -10 16 0 5 5 9 10 9 6 0 10 -7 10 -16z m4827 -12 c21 -11 33 -25
35 -42 2 -17 13 -30 39 -42 35 -16 66 -45 58 -53 -10 -10 -211 16 -240 30 -18
10 -41 14 -55 11 -14 -4 -37 0 -54 9 -17 9 -35 13 -40 10 -6 -3 -10 3 -10 14
0 19 56 71 76 71 5 0 14 -10 19 -22 8 -18 18 -23 45 -23 31 0 35 3 35 25 -1
44 24 47 92 12z m-4642 -2 c-4 -6 5 -8 22 -6 15 2 22 1 16 -1 -7 -2 -13 -9
-13 -15 0 -5 6 -8 14 -5 19 8 87 -14 80 -25 -3 -5 0 -15 6 -23 7 -8 9 -15 5
-15 -4 0 -2 -6 4 -14 11 -13 10 -62 -3 -156 -1 -14 -4 -38 -5 -55 -3 -29 -3
-29 -10 -5 -4 14 -10 20 -13 14 -4 -6 -1 -22 6 -36 17 -33 10 -148 -9 -164
-15 -11 -17 -54 -3 -54 14 0 8 -24 -11 -49 -16 -21 -19 -21 -24 -7 -4 10 -11
15 -17 11 -6 -4 -5 -13 2 -25 7 -10 16 -16 20 -14 4 3 8 1 8 -4 0 -21 -28 -20
-35 1 -5 17 -8 19 -12 7 -11 -28 -53 -60 -70 -53 -11 4 -14 3 -9 -5 4 -7 3
-12 -3 -12 -5 0 -13 5 -16 10 -4 6 -11 8 -16 4 -6 -4 -6 -11 1 -19 9 -10 7
-16 -7 -23 -22 -11 -78 10 -91 35 -10 20 -45 213 -39 219 3 3 96 -22 132 -37
11 -4 38 -13 60 -20 22 -6 48 -15 57 -20 25 -13 32 -11 19 5 -6 7 -39 19 -74
27 -34 7 -54 15 -44 17 10 2 17 13 17 28 0 18 -5 24 -22 24 -20 1 -21 2 -7 13
17 13 27 72 36 207 7 123 7 124 16 137 4 6 2 15 -3 18 -8 5 -7 11 3 18 23 20
29 47 9 48 -12 0 -13 2 -3 6 11 5 11 7 0 14 -10 6 -8 9 9 9 13 0 20 -4 17 -10z
m-768 -52 c-3 -8 -6 -5 -6 6 -1 11 2 17 5 13 3 -3 4 -12 1 -19z m277 1 c-8
-14 -34 -10 -34 5 0 9 7 12 20 9 11 -3 17 -9 14 -14z m1586 -14 c56 -8 110
-31 110 -45 0 -6 4 -9 8 -6 5 3 14 -10 20 -29 9 -31 8 -35 -8 -35 -11 0 -29 4
-42 9 -13 5 -56 15 -95 21 -51 8 -73 16 -73 26 0 8 -4 14 -10 14 -5 0 -6 -7
-3 -17 4 -11 3 -14 -5 -9 -21 12 -13 44 15 64 15 11 30 19 33 17 3 -2 25 -6
50 -10z m-115 -15 c3 -5 1 -10 -4 -10 -6 0 -11 5 -11 10 0 6 2 10 4 10 3 0 8
-4 11 -10z m1895 0 c0 -5 -5 -10 -11 -10 -5 0 -7 5 -4 10 3 6 8 10 11 10 2 0
4 -4 4 -10z m-3140 -10 c0 -5 -5 -10 -11 -10 -5 0 -7 5 -4 10 3 6 8 10 11 10
2 0 4 -4 4 -10z m56 -34 c2 -13 1 -13 -3 -1 -2 8 -11 15 -18 15 -8 0 -17 4
-20 10 -4 6 2 7 17 1 13 -4 24 -16 24 -25z m-276 14 c0 -5 -6 -10 -14 -10 -8
0 -18 5 -21 10 -3 6 3 10 14 10 12 0 21 -4 21 -10z m1457 -12 c-3 -8 -6 -5 -6
6 -1 11 2 17 5 13 3 -3 4 -12 1 -19z m-2407 -8 c-33 -26 -52 -25 -21 0 13 11
28 20 35 20 6 0 0 -9 -14 -20z m2614 -52 c65 -11 72 -15 127 -70 62 -62 76
-98 37 -98 -39 0 -323 63 -334 74 -12 11 -44 101 -44 122 0 9 17 8 73 -2 39
-8 103 -19 141 -26z m2421 -7 c3 -5 1 -12 -5 -16 -5 -3 -10 1 -10 9 0 18 6 21
15 7z m-4939 -69 c-10 -2 -22 0 -28 6 -6 6 0 7 19 4 21 -5 23 -7 9 -10z m4659
8 c3 -5 1 -10 -4 -10 -6 0 -11 5 -11 10 0 6 2 10 4 10 3 0 8 -4 11 -10z
m-3397 -45 c-3 -3 -9 2 -12 12 -6 14 -5 15 5 6 7 -7 10 -15 7 -18z m1954 13
c-9 -9 -15 -9 -24 0 -9 9 -7 12 12 12 19 0 21 -3 12 -12z m143 -14 c19 -9 42
-14 50 -10 8 3 15 1 15 -4 0 -6 -8 -10 -17 -10 -29 0 -148 22 -155 29 -16 14
75 10 107 -5z m1173 -9 c1 -1 -3 -15 -10 -30 -10 -23 -10 -29 0 -33 20 -6 14
-22 -9 -22 -22 0 -23 18 -4 63 5 12 2 17 -10 17 -10 0 -15 -5 -12 -13 2 -6 -6
-20 -19 -30 -28 -21 -29 -18 -9 29 13 32 18 35 42 29 16 -4 29 -8 31 -10z
m441 6 c21 -12 258 -60 316 -65 44 -4 75 -14 75 -25 0 -4 -9 -7 -19 -7 -11 0
-17 4 -15 8 9 15 -43 8 -56 -7 -13 -15 -35 -11 -25 6 9 14 -25 23 -38 10 -6
-6 -29 -11 -51 -12 -35 -1 -37 -2 -16 -8 14 -4 24 -13 22 -20 -1 -8 2 -9 10
-4 19 12 58 11 58 -2 0 -5 -7 -23 -15 -39 -8 -15 -15 -35 -15 -42 0 -8 -4 -14
-10 -14 -5 0 -10 10 -10 23 -1 20 -2 20 -11 4 -6 -9 -15 -15 -20 -12 -5 4 -6
12 -3 18 5 8 3 8 -7 0 -7 -7 -22 -13 -32 -13 -17 0 -19 5 -14 38 l5 37 -16
-32 c-16 -34 -50 -48 -37 -15 22 54 15 69 -9 20 -6 -13 -22 -24 -34 -26 -18
-3 -22 2 -23 25 -1 28 -1 28 -8 3 -4 -14 -11 -25 -16 -24 -31 1 -65 18 -65 31
0 13 -3 13 -15 3 -12 -10 -15 -9 -15 6 0 16 -2 16 -10 4 -17 -27 -21 -3 -4 32
14 31 20 34 54 34 27 -1 42 4 50 18 7 11 8 16 1 11 -6 -3 -11 -2 -11 4 0 5 -3
16 -6 25 -7 18 8 21 35 7z m-393 -28 c-6 -14 -4 -14 14 2 20 18 23 19 34 3 10
-14 15 -15 26 -5 10 10 12 9 7 -5 -7 -19 8 -25 18 -8 10 16 65 12 65 -5 0 -8
-4 -15 -9 -15 -5 0 -14 -13 -21 -30 -7 -16 -16 -30 -21 -30 -12 0 -11 7 2 31
6 11 8 25 6 32 -2 7 -12 -4 -22 -23 -16 -30 -19 -32 -25 -16 -4 14 -9 16 -14
8 -13 -22 -26 -13 -16 12 7 18 5 26 -5 30 -8 3 -17 1 -20 -4 -3 -4 0 -10 7
-12 16 -6 2 -38 -17 -38 -10 0 -15 10 -15 28 l-1 27 -14 -25 c-18 -31 -21 -4
-3 35 12 28 34 35 24 8z m1978 -11 c-18 -12 -24 -52 -8 -52 8 0 14 -4 14 -10
0 -5 9 -10 21 -10 28 0 61 -19 54 -31 -4 -5 -22 -9 -41 -9 -20 0 -43 -4 -53
-10 -13 -6 -24 -5 -36 4 -18 13 -53 9 -99 -9 -14 -6 -18 -4 -14 6 2 8 31 23
63 34 54 19 81 45 68 68 -7 12 7 27 25 27 11 0 13 -3 6 -8z m-100 -16 c-10 -8
-21 -12 -24 -10 -5 6 21 24 34 24 6 0 1 -6 -10 -14z m186 10 c0 -2 -7 -9 -15
-16 -13 -11 -14 -10 -9 4 5 14 24 23 24 12z m-1800 -29 c0 -28 -26 -67 -45
-67 -22 0 -24 12 -8 53 18 43 53 53 53 14z m1830 3 c-11 -20 -30 -28 -30 -12
0 11 22 32 32 32 5 0 4 -9 -2 -20z m66 -17 c-7 -26 -7 -26 17 -10 24 15 25 15
20 -3 -5 -20 -19 -25 -47 -14 -12 5 -13 10 -4 30 15 32 22 31 14 -3z m-1393
-38 c-3 -9 -8 -14 -10 -11 -3 3 -2 9 2 15 9 16 15 13 8 -4z m1517 3 c0 -6 -3
-8 -7 -5 -3 4 -13 1 -22 -6 -14 -11 -14 -10 -2 6 15 20 31 22 31 5z m-4258
-20 c2 -15 15 -25 45 -35 23 -8 55 -27 70 -43 24 -25 28 -37 27 -77 l-2 -48
-52 -2 c-56 -3 -82 -16 -78 -41 2 -8 -3 -17 -11 -20 -9 -3 -11 1 -7 14 10 32
-6 42 -64 39 -62 -3 -150 -24 -150 -37 0 -4 -7 -8 -15 -8 -17 0 -9 29 14 47
14 11 14 12 1 13 -12 0 -15 14 -15 60 0 53 4 64 31 95 27 31 37 35 80 35 27 1
63 7 79 15 41 18 43 18 47 -7z m4171 -20 c46 -20 56 -31 38 -42 -9 -6 -117 30
-138 47 -20 15 -3 29 26 22 14 -4 47 -16 74 -27z m-2683 12 c0 -5 -4 -10 -10
-10 -5 0 -10 5 -10 10 0 6 5 10 10 10 6 0 10 -4 10 -10z m55 0 c3 -5 1 -10 -4
-10 -6 0 -11 5 -11 10 0 6 2 10 4 10 3 0 8 -4 11 -10z m338 -41 c23 -5 92 -11
152 -13 124 -5 175 -14 153 -27 -7 -5 -23 -9 -35 -9 -12 0 -25 -5 -28 -10 -5
-7 20 -10 75 -7 46 2 76 0 68 -5 -8 -5 3 -7 27 -5 22 2 51 -1 65 -6 26 -10 50
-14 110 -22 19 -2 50 -8 68 -14 17 -5 32 -7 32 -3 0 3 5 1 12 -6 7 -7 27 -12
46 -12 19 0 31 -4 27 -10 -3 -5 0 -7 8 -5 8 4 19 -6 28 -22 8 -15 18 -32 24
-36 5 -5 -8 -6 -30 -4 -59 6 -507 97 -525 106 -9 5 -40 12 -70 15 -104 13
-356 69 -368 81 -3 3 8 5 24 6 29 1 29 1 4 9 -29 9 -19 13 28 10 19 -1 32 3
32 10 0 10 4 9 15 0 9 -7 34 -17 58 -21z m-290 14 c-7 -2 -21 -2 -30 0 -10 3
-4 5 12 5 17 0 24 -2 18 -5z m284 1 c-3 -3 -12 -4 -19 -1 -8 3 -5 6 6 6 11 1
17 -2 13 -5z m2165 -16 c-7 -7 -12 -8 -12 -2 0 14 12 26 19 19 2 -3 -1 -11 -7
-17z m-2337 -8 c7 -12 -2 -12 -30 0 -19 8 -19 9 2 9 12 1 25 -3 28 -9z m2198
-14 c34 -8 75 -18 90 -21 33 -7 31 -27 -3 -35 -27 -6 -134 27 -171 54 l-23 16
22 0 c13 0 51 -6 85 -14z m365 -28 c2 -20 -2 -28 -18 -33 -12 -4 -24 -4 -28
-1 -3 4 4 9 16 13 25 6 26 7 11 35 -9 16 -8 19 3 16 7 -3 14 -16 16 -30z m-68
-149 c0 -5 -7 -9 -15 -9 -15 0 -20 12 -9 23 8 8 24 -1 24 -14z m-1318 -16 c2
-17 10 -29 21 -31 10 -2 16 0 15 5 -2 4 2 9 7 10 6 1 9 -5 7 -13 -2 -11 4 -15
20 -13 13 2 29 0 36 -5 7 -4 19 -5 27 -2 8 3 17 1 20 -4 4 -6 17 -10 31 -10
14 0 22 4 19 10 -3 6 5 10 19 10 13 0 26 -4 28 -9 4 -11 147 -21 154 -10 9 16
42 9 46 -9 4 -14 24 -20 99 -31 52 -7 105 -18 119 -23 14 -5 45 -12 70 -15 62
-7 64 -7 70 -15 3 -3 23 -8 45 -10 22 -2 45 -7 50 -10 8 -4 59 -15 87 -19 4 0
35 -7 69 -15 33 -8 64 -12 69 -9 5 3 11 1 15 -5 3 -5 25 -10 49 -10 24 0 56
-7 72 -14 16 -8 45 -17 64 -19 20 -2 42 -7 49 -11 7 -5 18 -3 24 3 16 16 27
14 21 -4 -4 -9 0 -15 9 -15 9 0 19 -5 23 -12 7 -12 -10 -10 -111 13 -27 6 -60
12 -72 13 -12 0 -25 4 -29 9 -4 4 -12 7 -18 7 -26 0 23 -29 59 -35 72 -11 174
-38 170 -45 -7 -11 -105 6 -235 41 -19 5 -57 13 -85 18 -27 5 -61 12 -75 15
-29 7 -115 24 -145 29 -11 2 -27 7 -35 10 -16 6 -84 20 -110 22 -8 1 -18 3
-22 4 -5 0 -10 1 -13 2 -2 0 -19 5 -37 10 -18 6 -55 14 -83 19 -71 11 -314 63
-635 135 -36 8 -75 15 -87 15 -12 0 -25 5 -28 11 -5 7 5 8 29 4 24 -5 36 -4
36 4 0 11 33 29 57 30 6 1 13 -11 15 -26z m-77 7 c-3 -5 -10 -10 -16 -10 -5 0
-9 5 -9 10 0 6 7 10 16 10 8 0 12 -4 9 -10z m-4600 -20 c-3 -5 -13 -10 -21
-10 -8 0 -14 5 -14 10 0 6 9 10 21 10 11 0 17 -4 14 -10z m-115 -20 c-49 -21
-80 -25 -80 -11 0 10 63 29 100 29 19 1 14 -4 -20 -18z m4330 10 c0 -5 -7 -10
-15 -10 -8 0 -15 5 -15 10 0 6 7 10 15 10 8 0 15 -4 15 -10z m-3802 -32 c17
-5 32 -13 32 -17 0 -9 -118 -46 -125 -39 -3 3 2 22 10 42 12 29 20 36 33 31 9
-4 32 -11 50 -17z m1185 0 c14 -21 16 -21 16 -4 1 13 6 16 19 11 9 -4 27 -10
40 -13 13 -2 26 -11 29 -18 3 -8 11 -14 19 -14 21 0 7 -23 -29 -47 -39 -27
-79 -29 -101 -7 -20 20 -21 38 -1 31 20 -8 28 9 12 25 -21 20 -39 58 -29 58 5
0 17 -10 25 -22z m227 -4 c12 -30 13 -74 3 -75 -73 -10 -96 -5 -76 15 4 4 8
13 8 19 1 23 28 67 42 67 7 0 18 -12 23 -26z m3974 12 c-4 -11 7 -16 43 -21
62 -9 75 -13 38 -14 -37 -1 -105 17 -105 28 0 10 11 21 21 21 5 0 6 -6 3 -14z
m-4054 -16 c-16 -11 -40 -13 -40 -5 0 8 44 24 50 18 2 -2 -2 -8 -10 -13z
m-2386 -8 c5 -9 -168 -80 -204 -84 -13 -2 -24 2 -26 7 -3 6 42 27 98 47 110
39 124 42 132 30z m6666 -22 c0 -4 21 -13 46 -19 26 -7 44 -14 41 -17 -7 -7
-187 29 -187 38 0 4 16 4 35 1 22 -4 35 -2 35 5 0 6 7 9 15 6 8 -4 15 -10 15
-14z m-4100 -9 c0 -4 -11 -6 -25 -3 -14 2 -25 6 -25 8 0 2 11 4 25 4 14 0 25
-4 25 -9z m-25 -29 c-3 -3 -11 0 -18 7 -9 10 -8 11 6 5 10 -3 15 -9 12 -12z
m4265 -8 c0 -2 -9 -4 -20 -4 -11 0 -20 4 -20 9 0 5 9 7 20 4 11 -3 20 -7 20
-9z m-4694 -41 c-10 -10 -19 5 -10 18 6 11 8 11 12 0 2 -7 1 -15 -2 -18z
m3354 23 c0 -2 -7 -6 -15 -10 -8 -3 -15 -1 -15 4 0 6 7 10 15 10 8 0 15 -2 15
-4z m1235 -16 c-11 -5 -27 -9 -35 -9 -9 0 -8 4 5 9 11 5 27 9 35 9 9 0 8 -4
-5 -9z m-4317 -30 c21 -28 21 -30 4 -30 -19 0 -46 43 -35 54 8 8 7 10 31 -24z
m-2066 -42 c-7 -7 -12 -8 -12 -2 0 14 12 26 19 19 2 -3 -1 -11 -7 -17z m-42
-7 c0 -6 -6 -13 -12 -18 -30 -19 -414 -160 -425 -155 -40 14 -1 34 232 119
171 62 205 71 205 54z m2082 -36 c4 -23 38 -46 84 -54 27 -5 52 -7 56 -5 19
12 6 -27 -14 -40 -26 -19 -67 -20 -121 -5 -42 11 -56 31 -37 54 7 9 10 26 6
41 -5 20 -3 25 9 22 9 -2 17 -7 17 -13z m65 9 c-3 -3 -12 -4 -19 -1 -8 3 -5 6
6 6 11 1 17 -2 13 -5z m3394 -14 c5 0 9 -4 9 -9 0 -4 -11 -6 -25 -3 -14 2 -25
9 -25 14 0 6 7 7 16 4 9 -3 20 -6 25 -6z m1019 -60 c0 -13 -20 -13 -40 0 -12
8 -9 10 13 10 15 0 27 -4 27 -10z m-6705 -40 c-3 -5 -12 -10 -18 -10 -7 0 -6
4 3 10 19 12 23 12 15 0z m65 0 c0 -5 3 -9 8 -9 33 5 72 -32 64 -63 -3 -14 -7
-16 -12 -7 -5 6 -15 9 -24 6 -9 -4 -16 -2 -16 3 0 6 -11 10 -24 10 -13 0 -26
5 -28 10 -2 6 -14 12 -26 13 -22 1 -22 2 -5 14 10 7 23 17 28 22 13 13 35 14
35 1z m-180 -61 c0 -5 -4 -7 -10 -4 -6 3 -10 -4 -10 -17 0 -20 5 -24 27 -24
14 1 28 -5 30 -11 3 -7 -2 -13 -10 -13 -9 0 -17 6 -20 13 -2 6 -7 9 -11 5 -4
-3 -1 -16 6 -27 10 -16 20 -20 39 -16 18 4 31 0 44 -15 22 -24 35 -26 35 -4 0
11 5 14 16 10 9 -3 20 -6 25 -6 5 0 9 -4 9 -10 0 -5 -8 -10 -17 -10 -10 0 -43
-13 -73 -30 -30 -16 -58 -29 -61 -30 -3 0 -23 13 -43 29 -21 16 -42 32 -49 35
-7 3 1 16 22 34 33 28 34 29 19 60 -12 22 -13 32 -4 36 20 8 36 6 36 -5z
m2630 -60 c0 -27 -23 -50 -40 -38 -11 8 -12 12 -2 16 15 6 16 30 1 35 -7 2 -9
13 -4 28 l7 23 19 -24 c10 -13 19 -31 19 -40z m3661 4 c3 -31 10 -48 23 -55
16 -9 22 -38 8 -38 -20 0 -68 81 -55 94 9 8 23 8 24 -1z m-4983 -635 c-11 -51
-26 -106 -34 -122 -8 -16 -14 -35 -14 -43 0 -20 -30 -16 -31 5 -1 11 -4 8 -8
-8 l-7 -25 -8 30 c-5 18 -4 31 3 33 6 2 -1 15 -14 30 -21 22 -22 28 -10 35 19
10 10 28 -9 21 -19 -7 -78 24 -74 39 2 7 20 20 39 29 34 17 167 67 180 68 3 0
-2 -42 -13 -92z m1803 -294 c16 -15 16 -18 -4 -57 -12 -23 -25 -43 -29 -45 -5
-2 -8 -12 -8 -23 0 -10 -4 -19 -10 -19 -5 0 -7 -7 -4 -15 4 -8 1 -15 -4 -15
-12 0 -8 -51 7 -79 8 -15 5 -29 -14 -63 -14 -25 -35 -53 -47 -64 -12 -10 -18
-13 -14 -6 4 6 3 12 -1 12 -14 0 -40 -23 -46 -42 -7 -19 8 -25 18 -8 3 6 11
10 17 10 7 0 5 -7 -3 -17 -8 -10 -21 -30 -28 -45 -8 -15 -18 -25 -22 -22 -10
6 -39 -24 -84 -85 -29 -39 -65 -54 -65 -28 0 8 16 36 35 63 19 27 35 52 35 57
0 16 -40 -14 -57 -43 -10 -17 -29 -33 -43 -37 -14 -3 -30 -12 -37 -20 -6 -8
-16 -13 -21 -12 -6 2 10 38 34 79 24 41 44 85 44 96 0 20 -3 19 -34 -12 -28
-28 -42 -34 -75 -34 -46 0 -54 16 -15 30 14 6 53 38 87 73 34 34 76 69 92 77
16 8 38 22 48 30 28 23 87 108 87 125 0 8 4 15 9 15 5 0 11 18 15 41 4 23 13
54 22 70 12 25 20 29 56 29 24 0 49 -7 59 -16z m-691 -38 c0 -3 -4 -8 -10 -11
-5 -3 -10 -1 -10 4 0 6 5 11 10 11 6 0 10 -2 10 -4z m4 -42 c23 -9 20 -24 -4
-24 -11 0 -20 7 -20 15 0 17 2 18 24 9z m886 -113 c117 -77 148 -121 84 -121
-14 0 -38 -7 -53 -15 -27 -13 -31 -13 -72 15 -71 46 -103 85 -95 114 7 28 32
56 50 56 6 0 45 -22 86 -49z m-875 29 c-43 -11 -195 -11 -170 0 11 5 61 8 110
8 62 0 81 -3 60 -8z m-1898 -26 c-3 -3 -12 -4 -19 -1 -8 3 -5 6 6 6 11 1 17
-2 13 -5z m-27 -24 c0 -5 -2 -10 -4 -10 -3 0 -8 5 -11 10 -3 6 -1 10 4 10 6 0
11 -4 11 -10z m2083 -117 c-3 -49 -6 -89 -7 -89 0 -1 -74 -4 -164 -8 l-163 -6
3 87 3 88 35 6 c19 4 94 7 166 8 l132 1 -5 -87z m-2123 67 c0 -5 -2 -10 -4
-10 -3 0 -8 5 -11 10 -3 6 -1 10 4 10 6 0 11 -4 11 -10z m387 4 c-3 -3 -12 -4
-19 -1 -8 3 -5 6 6 6 11 1 17 -2 13 -5z m219 -23 c0 -11 -4 -17 -8 -15 -4 3
-8 12 -8 20 0 8 4 14 8 14 4 0 8 -9 8 -19z m112 -13 c6 -7 10 -36 9 -65 -2
-45 2 -56 28 -83 16 -17 40 -33 52 -36 20 -5 25 -13 25 -34 0 -3 -3 -15 -6
-27 -5 -16 -2 -22 11 -26 17 -4 17 -4 -1 -12 -16 -7 -31 4 -84 60 -93 101
-155 186 -144 197 9 9 78 36 93 38 4 0 11 -6 17 -12z m329 -27 c6 0 26 -28 45
-61 18 -33 36 -60 40 -60 5 0 8 -6 8 -12 0 -7 23 -42 50 -77 28 -35 50 -68 50
-74 0 -11 59 -108 71 -117 4 -3 21 -22 37 -43 l30 -37 -18 -61 c-10 -33 -16
-72 -13 -87 10 -53 6 -85 -12 -99 -11 -7 -24 -12 -29 -10 -13 4 -24 42 -25 90
-1 26 -6 37 -16 37 -12 0 -13 -9 -8 -47 10 -74 9 -85 -10 -97 -24 -15 -43 10
-52 69 -9 62 -25 67 -25 8 0 -51 -12 -73 -42 -73 -20 0 -34 54 -25 99 7 35
-18 65 -33 40 -6 -8 -5 -18 0 -23 6 -6 10 -17 10 -25 0 -10 -3 -12 -8 -6 -4 6
-16 15 -26 21 -25 13 -32 34 -12 34 27 0 26 17 -4 51 -87 101 -167 215 -158
224 5 5 41 -18 126 -78 35 -26 45 -29 52 -17 5 8 5 19 -1 26 -5 6 -12 40 -15
75 -4 42 -14 77 -30 101 -13 21 -24 42 -24 47 0 5 -6 14 -14 20 -8 7 -19 33
-24 58 -10 44 -9 48 20 78 18 20 38 31 51 30 12 -1 27 -3 34 -4z m-932 -11 c3
-5 1 -10 -4 -10 -6 0 -11 5 -11 10 0 6 2 10 4 10 3 0 8 -4 11 -10z m401 -15
c7 -18 -14 -47 -28 -39 -5 3 -4 12 3 20 9 11 9 14 0 14 -7 0 -9 5 -6 10 9 15
25 12 31 -5z m88 -31 c9 -24 7 -28 -8 -15 -11 9 -15 8 -20 -5 -4 -9 -9 -14
-12 -11 -6 6 17 47 27 47 4 0 10 -7 13 -16z m-131 -47 c-4 -6 6 -2 21 11 31
24 60 29 53 10 -2 -7 -14 -12 -25 -10 -15 2 -22 -2 -22 -12 0 -9 -11 -18 -25
-22 -14 -3 -25 -10 -25 -15 0 -5 -6 -6 -14 -3 -8 3 -17 0 -21 -6 -5 -8 -11 -5
-20 7 -9 13 -10 22 -3 30 12 15 32 17 23 3 -3 -5 1 -10 9 -10 9 0 15 3 15 8
-1 4 -1 15 0 25 1 15 5 16 21 7 12 -7 18 -16 13 -23z m-178 -37 c3 -5 1 -10
-4 -10 -6 0 -11 5 -11 10 0 6 2 10 4 10 3 0 8 -4 11 -10z m-175 -20 c0 -5 10
-10 22 -10 12 0 19 -3 15 -6 -9 -9 -57 5 -57 16 0 6 5 10 10 10 6 0 10 -4 10
-10z m164 -34 c-3 -9 -10 -13 -16 -10 -5 3 -4 12 3 20 15 18 22 13 13 -10z
m2203 -2 c-3 -3 -12 -4 -19 -1 -8 3 -5 6 6 6 11 1 17 -2 13 -5z m-71 -89 c-15
-25 -31 -43 -37 -40 -11 7 4 40 34 72 31 35 32 19 3 -32z m-2266 15 c12 -8 11
-10 -7 -10 -12 0 -25 5 -28 10 -8 13 15 13 35 0z m588 -189 c12 -10 22 -21 22
-25 0 -10 -39 17 -44 31 -7 17 -3 16 22 -6z m70 -61 c7 -11 11 -20 9 -20 -2 0
-12 9 -22 20 -10 11 -14 20 -9 20 5 0 15 -9 22 -20z m614 -84 c1 -24 -2 -41
-9 -43 -14 -5 -24 24 -18 52 2 11 4 27 4 35 2 29 19 -6 23 -44z m2 -102 c3 -8
2 -12 -4 -9 -6 3 -10 10 -10 16 0 14 7 11 14 -7z m3368 -71 c97 -38 111 -50
84 -72 -10 -9 -15 -8 -19 3 -5 12 -105 66 -122 66 -3 0 -19 9 -37 20 -50 31
-15 24 94 -17z m-2444 -123 c48 -23 55 -51 19 -75 -51 -33 -117 -27 -124 11
-2 9 39 63 63 83 0 1 19 -8 42 -19z m2317 -121 c22 -11 63 -33 90 -49 28 -16
60 -30 73 -30 29 0 39 -27 18 -48 -9 -9 -16 -11 -16 -5 0 10 -160 93 -180 93
-6 0 -10 4 -10 9 0 5 -9 13 -20 16 -22 7 -28 35 -7 35 6 0 30 -9 52 -21z"/>
<path d="M1555 3900 c3 -5 8 -10 11 -10 2 0 4 5 4 10 0 6 -5 10 -11 10 -5 0
-7 -4 -4 -10z"/>
<path d="M1588 3883 c7 -3 16 -2 19 1 4 3 -2 6 -13 5 -11 0 -14 -3 -6 -6z"/>
<path d="M1612 3840 c0 -14 2 -19 5 -12 2 6 2 18 0 25 -3 6 -5 1 -5 -13z"/>
<path d="M1575 3830 c3 -5 8 -10 11 -10 2 0 4 5 4 10 0 6 -5 10 -11 10 -5 0
-7 -4 -4 -10z"/>
<path d="M1610 3760 c0 -5 5 -10 10 -10 6 0 10 5 10 10 0 6 -4 10 -10 10 -5 0
-10 -4 -10 -10z"/>
<path d="M1536 3722 c-4 -7 -2 -12 5 -12 8 0 6 -6 -4 -18 -26 -29 -21 -44 29
-84 25 -20 45 -40 44 -45 -1 -4 3 -9 9 -11 6 -2 7 7 2 25 -5 18 -14 27 -24 25
-21 -4 -22 6 -1 29 22 24 9 40 -26 32 -33 -6 -39 3 -15 21 14 10 14 14 2 30
-10 13 -16 15 -21 8z"/>
<path d="M1615 3719 c-4 -6 -5 -12 -2 -15 2 -3 7 2 10 11 7 17 1 20 -8 4z"/>
<path d="M1520 3606 c0 -2 7 -9 15 -16 9 -7 15 -8 15 -2 0 5 -7 12 -15 16 -8
3 -15 4 -15 2z"/>
<path d="M1525 3560 c3 -6 1 -10 -4 -10 -6 0 -9 -10 -7 -22 3 -13 5 -31 5 -40
2 -34 26 -7 28 31 2 27 -2 41 -13 45 -8 3 -12 2 -9 -4z"/>
<path d="M2727 3824 c-8 -8 1 -24 14 -24 5 0 9 7 9 15 0 15 -12 20 -23 9z"/>
<path d="M5195 3530 c-3 -5 -1 -10 4 -10 6 0 11 5 11 10 0 6 -2 10 -4 10 -3 0
-8 -4 -11 -10z"/>
<path d="M5315 3519 c-4 -6 -5 -12 -2 -15 2 -3 7 2 10 11 7 17 1 20 -8 4z"/>
<path d="M4992 3576 c-7 -16 -8 -26 -1 -26 12 0 22 25 17 41 -2 6 -9 0 -16
-15z"/>
<path d="M5630 3255 c0 -8 5 -15 10 -15 6 0 10 7 10 15 0 8 -4 15 -10 15 -5 0
-10 -7 -10 -15z"/>
<path d="M6237 3119 c7 -7 15 -10 18 -7 3 3 -2 9 -12 12 -14 6 -15 5 -6 -5z"/>
<path d="M6358 3093 c7 -3 16 -2 19 1 4 3 -2 6 -13 5 -11 0 -14 -3 -6 -6z"/>
<path d="M6458 3073 c6 -2 18 -2 25 0 6 3 1 5 -13 5 -14 0 -19 -2 -12 -5z"/>
<path d="M6518 3063 c7 -3 16 -2 19 1 4 3 -2 6 -13 5 -11 0 -14 -3 -6 -6z"/>
<path d="M6565 3050 c3 -5 10 -10 16 -10 5 0 9 5 9 10 0 6 -7 10 -16 10 -8 0
-12 -4 -9 -10z"/>
<path d="M6620 3040 c0 -5 5 -10 11 -10 5 0 7 5 4 10 -3 6 -8 10 -11 10 -2 0
-4 -4 -4 -10z"/>
<path d="M6710 3019 c0 -5 5 -7 10 -4 6 3 10 8 10 11 0 2 -4 4 -10 4 -5 0 -10
-5 -10 -11z"/>
<path d="M6760 3009 c0 -6 9 -8 20 -4 12 4 20 2 20 -5 0 -6 5 -8 11 -4 8 4 7
9 -2 15 -19 12 -49 11 -49 -2z"/>
<path d="M6835 3000 c3 -5 8 -10 11 -10 2 0 4 5 4 10 0 6 -5 10 -11 10 -5 0
-7 -4 -4 -10z"/>
<path d="M430 2680 c0 -5 5 -10 10 -10 6 0 10 5 10 10 0 6 -4 10 -10 10 -5 0
-10 -4 -10 -10z"/>
<path d="M600 3670 c0 -5 5 -10 10 -10 6 0 10 5 10 10 0 6 -4 10 -10 10 -5 0
-10 -4 -10 -10z"/>
<path d="M340 3613 c8 -3 24 -10 35 -15 20 -9 20 -9 1 6 -11 9 -27 16 -35 15
-14 0 -14 -1 -1 -6z"/>
<path d="M605 3599 c-4 -6 -5 -13 -2 -16 7 -7 27 6 27 18 0 12 -17 12 -25 -2z"/>
<path d="M659 3580 c-21 -17 -22 -21 -9 -30 24 -16 59 -12 82 10 l21 19 -27
11 c-37 14 -40 13 -67 -10z"/>
<path d="M3120 3575 c0 -8 7 -15 15 -15 8 0 15 7 15 15 0 8 -7 15 -15 15 -8 0
-15 -7 -15 -15z"/>
<path d="M430 3576 c0 -2 7 -7 16 -10 8 -3 12 -2 9 4 -6 10 -25 14 -25 6z"/>
<path d="M585 3570 c3 -5 14 -10 23 -10 15 0 15 2 2 10 -20 13 -33 13 -25 0z"/>
<path d="M905 3570 c3 -5 10 -10 16 -10 5 0 9 5 9 10 0 6 -7 10 -16 10 -8 0
-12 -4 -9 -10z"/>
<path d="M3200 3570 c0 -5 5 -10 11 -10 5 0 7 5 4 10 -3 6 -8 10 -11 10 -2 0
-4 -4 -4 -10z"/>
<path d="M3315 3551 c19 -37 26 -42 54 -34 17 4 20 10 15 27 -9 27 -22 36 -57
36 -27 0 -27 0 -12 -29z"/>
<path d="M625 3512 c12 -11 127 -53 132 -48 2 2 -16 12 -39 23 -51 24 -108 39
-93 25z"/>
<path d="M796 3501 c-4 -5 -2 -12 3 -15 5 -4 12 -2 15 3 4 5 2 12 -3 15 -5 4
-12 2 -15 -3z"/>
<path d="M3702 3479 c1 -39 55 -62 70 -29 13 29 8 38 -31 48 -39 9 -40 9 -39
-19z"/>
<path d="M3826 3495 c4 -8 12 -15 20 -15 8 0 14 7 14 15 0 8 -9 15 -20 15 -13
0 -18 -5 -14 -15z"/>
<path d="M3870 3494 c0 -8 5 -12 10 -9 6 3 10 10 10 16 0 5 -4 9 -10 9 -5 0
-10 -7 -10 -16z"/>
<path d="M3820 3460 c0 -5 5 -10 10 -10 6 0 10 5 10 10 0 6 -4 10 -10 10 -5 0
-10 -4 -10 -10z"/>
<path d="M880 3410 c8 -5 20 -10 25 -10 6 0 3 5 -5 10 -8 5 -19 10 -25 10 -5
0 -3 -5 5 -10z"/>
<path d="M4720 3336 c0 -25 30 -43 50 -31 16 10 12 42 -6 49 -31 12 -44 6 -44
-18z"/>
<path d="M4290 3330 c0 -5 5 -10 11 -10 5 0 7 5 4 10 -3 6 -8 10 -11 10 -2 0
-4 -4 -4 -10z"/>
<path d="M4864 3314 c-7 -28 7 -44 39 -44 27 0 19 50 -10 61 -19 7 -24 4 -29
-17z"/>
<path d="M5007 3293 c-4 -3 -7 -14 -7 -24 0 -20 41 -36 61 -24 6 4 14 3 18 -3
3 -6 19 -14 34 -17 27 -7 28 -6 27 43 0 4 -12 10 -26 14 -18 5 -27 2 -31 -9
-5 -13 -8 -12 -14 5 -8 21 -47 31 -62 15z"/>
<path d="M4712 3263 c2 -22 8 -28 28 -28 16 0 26 6 28 19 4 21 -13 36 -41 36
-14 0 -18 -6 -15 -27z"/>
<path d="M4220 3258 c0 -5 11 -8 25 -8 14 0 25 4 25 9 0 5 -11 8 -25 7 -14 0
-25 -4 -25 -8z"/>
<path d="M4777 3250 c-4 -16 1 -23 20 -31 30 -11 47 0 41 27 -5 28 -54 31 -61
4z"/>
<path d="M4850 3230 c0 -27 3 -30 30 -30 25 0 30 4 30 24 0 23 -16 36 -46 36
-9 0 -14 -11 -14 -30z"/>
<path d="M3755 3238 c-2 -7 -9 -44 -14 -83 -6 -38 -17 -119 -26 -180 -21 -146
-16 -137 -66 -120 -23 8 -43 15 -45 15 -8 0 10 -66 20 -72 6 -4 25 -7 41 -7
32 1 42 -1 205 -51 58 -18 117 -34 133 -37 15 -3 27 -9 27 -13 0 -5 8 -11 19
-15 10 -3 18 -13 17 -22 -1 -17 55 -38 77 -29 7 2 2 5 -10 5 -16 1 -23 7 -23
21 0 11 5 20 10 20 6 0 10 -7 10 -15 0 -8 6 -12 13 -9 8 3 13 22 14 44 0 22 6
47 12 54 7 9 13 62 14 138 1 67 6 126 11 130 12 8 -20 74 -40 82 -27 10 -34 7
-54 -26 -21 -35 -23 -29 -11 44 4 26 5 51 2 56 -5 7 -303 82 -327 82 -3 0 -7
-6 -9 -12z m305 -468 c0 -10 -4 -22 -10 -25 -6 -4 -10 7 -10 25 0 18 4 29 10
25 6 -3 10 -15 10 -25z m45 -30 c3 -5 1 -10 -4 -10 -6 0 -11 5 -11 10 0 6 2
10 4 10 3 0 8 -4 11 -10z"/>
<path d="M4298 3239 c6 -7 12 -21 12 -31 0 -23 19 -23 27 0 4 9 11 20 17 24 7
5 5 8 -4 8 -8 0 -26 3 -40 6 -21 6 -23 4 -12 -7z"/>
<path d="M4920 3215 c0 -14 3 -25 8 -25 4 0 17 -3 30 -6 19 -6 22 -3 22 25 0
28 -3 31 -30 31 -25 0 -30 -4 -30 -25z"/>
<path d="M5265 3219 c-8 -24 8 -39 41 -39 25 0 41 40 21 52 -24 15 -56 8 -62
-13z"/>
<path d="M4378 3223 c7 -3 16 -2 19 1 4 3 -2 6 -13 5 -11 0 -14 -3 -6 -6z"/>
<path d="M4996 3223 c-3 -3 -6 -16 -6 -29 0 -25 48 -44 60 -24 5 8 9 6 14 -5
4 -11 15 -15 33 -13 22 2 28 8 28 28 0 21 -5 25 -30 25 -16 0 -32 3 -35 6 -8
10 -57 19 -64 12z"/>
<path d="M5350 3206 c-9 -25 -4 -32 32 -41 21 -5 27 -3 33 14 8 27 1 38 -31
44 -19 3 -27 0 -34 -17z"/>
<path d="M4698 3196 c-3 -14 -3 -28 0 -31 9 -9 52 -5 52 5 0 6 9 1 20 -10 25
-25 47 -26 55 0 9 29 -4 42 -36 38 -16 -3 -30 -1 -31 3 -2 4 -15 10 -29 14
-23 6 -27 3 -31 -19z"/>
<path d="M4265 3200 c-3 -6 -21 -8 -40 -6 -18 2 -36 1 -40 -2 -4 -4 -16 -7
-28 -7 -16 0 -22 -7 -24 -32 -2 -18 0 -33 4 -34 4 0 25 -2 46 -5 42 -5 48 6
15 29 -16 11 -18 16 -8 16 8 0 24 -6 34 -14 28 -21 53 -19 67 6 9 18 8 24 -5
31 -9 5 -14 13 -11 19 4 5 4 9 1 9 -3 0 -8 -5 -11 -10z"/>
<path d="M5431 3189 c-11 -29 -3 -39 35 -42 25 -2 29 2 32 26 2 19 -1 27 -12
27 -8 0 -21 3 -30 6 -11 4 -19 -2 -25 -17z"/>
<path d="M4837 3168 c-8 -29 5 -42 46 -45 17 -1 44 -5 60 -9 24 -6 27 -4 27
19 0 36 -59 55 -61 20 0 -14 -2 -13 -9 5 -5 12 -14 22 -19 22 -5 0 -16 3 -24
6 -9 3 -17 -3 -20 -18z"/>
<path d="M5517 3183 c-4 -3 -7 -16 -7 -29 0 -17 7 -23 30 -26 35 -5 40 -2 40
28 0 14 -8 24 -22 28 -29 7 -33 7 -41 -1z"/>
<path d="M4346 3148 c-8 -13 -20 -52 -25 -88 -6 -36 -22 -128 -36 -205 -13
-77 -25 -157 -25 -177 0 -40 27 -78 55 -78 8 0 23 -4 33 -9 9 -5 63 -23 119
-41 117 -36 160 -55 144 -65 -12 -7 -90 15 -148 41 -35 16 -53 18 -53 6 0 -9
298 -112 324 -112 33 0 16 29 -21 35 -53 9 -63 13 -63 24 0 5 32 1 71 -10 59
-16 74 -17 96 -7 25 12 28 24 60 193 69 369 68 375 -9 395 -24 6 -65 17 -93
25 -64 18 -392 95 -405 95 -5 0 -16 -10 -24 -22z"/>
<path d="M5257 3164 c-4 -4 -7 -18 -7 -31 0 -20 5 -23 35 -23 31 0 35 3 35 25
0 15 -6 25 -14 25 -8 0 -21 2 -28 5 -8 3 -17 2 -21 -1z"/>
<path d="M5597 3163 c-4 -3 -7 -14 -7 -24 0 -18 19 -29 50 -29 21 0 35 41 17
52 -15 10 -51 10 -60 1z"/>
<path d="M4986 3152 c-3 -3 -6 -16 -6 -28 0 -17 7 -25 25 -30 30 -8 34 -5 37
26 2 18 -3 25 -24 30 -15 5 -29 5 -32 2z"/>
<path d="M5685 3152 c-11 -12 -4 -50 11 -56 37 -14 54 -7 54 23 0 24 -5 29
-30 33 -17 3 -32 2 -35 0z"/>
<path d="M5334 3135 c-11 -27 4 -45 36 -45 25 0 30 4 30 24 0 16 -7 26 -22 30
-33 9 -38 8 -44 -9z"/>
<path d="M3100 3130 c0 -5 5 -10 10 -10 6 0 10 5 10 10 0 6 -4 10 -10 10 -5 0
-10 -4 -10 -10z"/>
<path d="M5417 3124 c-4 -4 -7 -15 -7 -25 0 -18 19 -29 51 -29 16 0 20 6 17
28 -2 20 -9 28 -28 30 -14 2 -29 0 -33 -4z"/>
<path d="M5497 3088 c-11 -39 56 -56 68 -18 9 28 -2 40 -34 40 -21 0 -30 -6
-34 -22z"/>
<path d="M5587 3094 c-13 -13 -7 -52 9 -58 37 -14 54 -7 54 24 0 19 -5 30 -14
30 -8 0 -21 2 -28 5 -8 3 -17 2 -21 -1z"/>
<path d="M790 3070 c19 -11 40 -19 45 -19 6 0 -6 8 -25 19 -19 11 -39 19 -45
19 -5 0 6 -8 25 -19z"/>
<path d="M5242 3063 c3 -24 8 -28 33 -28 39 0 49 39 13 49 -42 11 -49 7 -46
-21z"/>
<path d="M4240 3064 c0 -7 9 -18 20 -24 17 -9 20 -8 20 8 0 11 -9 22 -20 25
-13 3 -20 0 -20 -9z"/>
<path d="M5664 3055 c-8 -32 -4 -37 37 -38 25 -2 34 3 37 17 5 22 -5 31 -40
40 -24 5 -28 3 -34 -19z"/>
<path d="M5320 3046 c0 -17 7 -26 25 -30 31 -8 45 -1 45 24 0 19 -19 30 -51
30 -13 0 -19 -7 -19 -24z"/>
<path d="M3282 3035 c0 -16 2 -22 5 -12 2 9 2 23 0 30 -3 6 -5 -1 -5 -18z"/>
<path d="M5400 3026 c0 -19 7 -27 26 -32 30 -8 47 6 42 32 -2 13 -13 20 -36
22 -28 3 -32 0 -32 -22z"/>
<path d="M5485 3032 c-3 -3 -5 -15 -5 -28 0 -15 8 -24 25 -28 33 -8 45 -1 45
28 0 19 -7 25 -30 28 -17 3 -32 2 -35 0z"/>
<path d="M5564 2996 c-8 -32 -6 -34 33 -42 26 -5 32 -3 38 16 8 26 0 36 -37
45 -23 6 -28 3 -34 -19z"/>
<path d="M5014 2975 c21 -16 32 -13 21 4 -3 6 -14 11 -23 11 -15 -1 -15 -2 2
-15z"/>
<path d="M3234 2955 c4 -16 2 -25 -6 -25 -17 0 2 -16 28 -24 14 -4 28 -1 38 9
22 22 20 45 -3 45 -11 0 -23 5 -26 10 -3 6 -13 10 -22 10 -11 0 -14 -6 -9 -25z"/>
<path d="M4988 2929 c-4 -25 -1 -32 19 -40 13 -5 25 -9 26 -9 1 0 3 12 4 28 3
53 -42 73 -49 21z"/>
<path d="M6300 2950 c0 -5 5 -10 10 -10 6 0 10 5 10 10 0 6 -4 10 -10 10 -5 0
-10 -4 -10 -10z"/>
<path d="M5100 2926 c0 -15 -7 -29 -15 -32 -25 -10 45 -40 83 -35 28 3 32 7
32 32 0 30 -13 39 -75 55 -22 5 -25 3 -25 -20z"/>
<path d="M5881 2934 c0 -11 3 -14 6 -6 3 7 2 16 -1 19 -3 4 -6 -2 -5 -13z"/>
<path d="M6340 2940 c0 -5 7 -10 15 -10 8 0 15 5 15 10 0 6 -7 10 -15 10 -8 0
-15 -4 -15 -10z"/>
<path d="M6450 2928 c0 -7 -3 -23 -6 -35 -5 -18 -1 -25 19 -32 36 -14 26 -51
-13 -51 -22 0 -29 -5 -33 -26 -3 -18 -1 -24 9 -20 13 5 27 -9 30 -29 0 -5 2
-15 2 -22 1 -7 8 -10 16 -7 17 7 27 62 12 68 -18 7 17 26 39 20 28 -6 52 11
38 28 -6 7 -9 21 -7 32 1 11 -5 20 -17 23 -11 3 -19 10 -18 17 1 6 -1 19 -5
29 -9 20 -66 24 -66 5z"/>
<path d="M6263 2915 c-3 -9 -3 -18 0 -22 10 -10 37 6 37 22 0 20 -29 20 -37 0z"/>
<path d="M5406 2878 c-17 -27 -106 -471 -106 -528 0 -51 15 -61 175 -111 72
-23 207 -65 300 -95 94 -30 182 -54 196 -54 48 0 59 27 120 297 32 142 59 271
59 286 0 58 -23 68 -353 150 -169 42 -322 77 -342 77 -25 0 -38 -6 -49 -22z"/>
<path d="M6728 2868 c2 -10 11 -18 18 -18 8 0 14 8 14 18 0 11 -7 18 -19 18
-12 0 -17 -6 -13 -18z"/>
<path d="M4980 2869 c0 -6 -14 -22 -30 -36 -27 -22 -30 -29 -24 -61 5 -25 4
-33 -5 -28 -6 4 -11 1 -11 -9 0 -9 4 -14 9 -11 5 3 11 0 14 -7 8 -21 -4 -67
-18 -67 -14 0 -29 -45 -20 -59 3 -5 -2 -11 -10 -15 -11 -4 -13 -11 -6 -30 6
-13 7 -27 3 -32 -4 -4 -1 -4 6 1 11 6 13 -2 10 -36 -2 -38 1 -45 20 -54 28
-12 28 -21 0 -29 -38 -10 -48 -7 -48 14 0 11 -3 20 -7 20 -12 0 -39 -20 -28
-20 6 0 4 -4 -3 -8 -8 -6 19 -18 76 -35 98 -30 106 -31 98 -18 -4 5 3 7 15 4
14 -4 17 -8 9 -13 -9 -6 -9 -9 -1 -15 7 -4 18 -2 26 5 8 7 15 7 19 1 4 -5 15
-9 26 -8 14 1 21 11 25 39 4 23 12 38 21 38 8 0 14 5 14 11 0 5 4 8 9 4 6 -3
3 15 -6 40 -13 40 -13 48 -1 68 19 28 30 95 17 103 -5 3 -7 10 -3 15 3 5 10 7
15 4 9 -6 10 -5 14 31 1 11 5 37 9 57 4 22 3 37 -3 37 -5 0 -13 10 -17 23 -7
21 -21 37 -36 37 -4 0 -14 -16 -22 -35 -17 -40 -29 -47 -20 -11 12 48 -26 96
-51 64 -5 -7 -21 -15 -35 -16 -20 -3 -22 -1 -12 10 9 11 9 17 0 26 -15 15 -38
16 -38 1z"/>
<path d="M6227 2863 c-22 -21 21 -53 61 -45 6 2 12 -2 12 -8 0 -14 33 -13 48
2 7 7 12 18 12 25 0 10 -7 9 -27 -4 -26 -18 -27 -17 -20 6 4 18 3 21 -6 12
-15 -15 -27 -14 -27 4 0 14 -3 13 -25 -1 -23 -15 -25 -15 -19 0 6 17 2 21 -9
9z"/>
<path d="M6687 2850 c3 -11 9 -20 14 -20 5 0 9 9 9 20 0 11 -6 20 -14 20 -9 0
-12 -7 -9 -20z"/>
<path d="M6380 2810 c0 -5 5 -10 10 -10 6 0 10 5 10 10 0 6 -4 10 -10 10 -5 0
-10 -4 -10 -10z"/>
<path d="M3633 2762 c-6 -4 6 -7 27 -7 21 0 33 3 27 7 -7 4 -19 8 -27 8 -8 0
-20 -4 -27 -8z"/>
<path d="M6192 2749 c2 -6 8 -10 13 -10 5 0 11 4 13 10 2 6 -4 11 -13 11 -9 0
-15 -5 -13 -11z"/>
<path d="M3725 2741 c11 -4 36 -11 55 -15 24 -4 29 -3 15 3 -11 4 -36 11 -55
15 -24 4 -29 3 -15 -3z"/>
<path d="M3550 2734 c0 -3 7 -12 15 -21 16 -15 45 -11 45 6 0 6 -6 8 -14 5 -8
-3 -17 -1 -21 5 -6 12 -25 15 -25 5z"/>
<path d="M7155 2730 c-2 -4 -3 -25 -2 -48 1 -30 6 -42 17 -43 9 0 6 -4 -7 -9
-23 -10 -33 -45 -10 -37 6 2 20 0 30 -5 15 -8 17 -3 17 51 0 45 -4 60 -17 65
-15 6 -15 8 1 19 16 12 16 13 -4 13 -12 0 -23 -3 -25 -6z"/>
<path d="M3838 2708 c5 -5 16 -8 23 -6 8 3 3 7 -10 11 -17 4 -21 3 -13 -5z"/>
<path d="M6452 2673 c-7 -12 -12 -29 -12 -39 0 -13 -6 -15 -30 -10 -25 5 -30
2 -30 -15 0 -11 -5 -29 -10 -40 -9 -16 -7 -19 15 -19 21 0 25 -5 25 -29 0 -16
-5 -42 -12 -58 l-11 -28 -6 35 c-5 30 -10 35 -37 38 -26 3 -35 -2 -51 -28
l-19 -31 -11 36 c-9 29 -9 35 3 35 12 0 12 4 4 20 -8 15 -7 27 4 49 13 25 14
31 1 41 -27 23 -50 8 -50 -33 0 -21 -6 -41 -14 -46 -7 -5 -10 -14 -6 -21 4 -7
-1 -13 -14 -17 -25 -6 -30 -22 -35 -101 -3 -52 -1 -62 13 -63 11 0 8 -3 -7
-10 -13 -5 -21 -13 -17 -19 3 -5 -4 -19 -16 -31 -13 -13 -19 -28 -15 -42 3
-12 -1 -29 -11 -39 -9 -10 -11 -18 -5 -18 5 0 8 -9 5 -20 -3 -11 -1 -20 3 -20
5 0 10 -18 11 -41 0 -22 3 -43 6 -46 12 -11 47 10 47 28 0 25 16 25 23 -1 6
-22 37 -28 37 -7 0 8 4 7 10 -3 12 -18 12 -21 1 -39 -8 -13 -12 -13 -27 0 -16
13 -16 12 -4 -10 12 -24 12 -24 -29 -18 -22 3 -41 1 -41 -4 0 -5 8 -9 18 -9
10 0 22 -4 28 -10 5 -5 28 -10 51 -12 36 -3 42 -6 37 -20 -3 -12 0 -18 10 -18
9 0 15 6 14 13 -4 15 55 13 60 -3 2 -5 12 -10 22 -10 11 0 39 -6 62 -14 24 -8
124 -40 223 -71 216 -68 235 -75 235 -86 0 -5 7 -6 15 -3 11 5 13 2 8 -11 -6
-16 -2 -17 34 -12 45 8 58 1 40 -21 -9 -13 -9 -14 1 -8 8 5 12 -1 12 -20 0
-21 3 -25 11 -17 8 8 30 5 81 -13 39 -13 77 -29 84 -35 12 -10 14 53 13 402
-1 228 -4 403 -6 389 -3 -14 -11 -50 -20 -80 -8 -30 -16 -64 -18 -75 -11 -63
-63 -246 -69 -245 -4 1 -11 -2 -14 -6 -4 -4 -1 -4 7 1 11 6 12 2 7 -21 -4 -16
-12 -32 -18 -35 -5 -3 -8 -12 -7 -20 7 -34 -13 -109 -31 -119 -26 -14 -30 -13
-30 8 -1 13 -6 10 -26 -13 -14 -16 -21 -21 -16 -10 6 11 12 34 15 50 3 17 17
75 32 130 15 55 31 116 35 135 5 19 22 87 38 150 33 129 31 140 -34 140 -18 0
-36 5 -39 10 -3 6 -20 10 -36 10 -17 0 -40 5 -52 12 -22 11 -89 30 -177 49
-25 6 -67 16 -95 24 -27 7 -68 18 -90 24 -22 6 -42 7 -46 3 -3 -4 -16 -51 -28
-104 -12 -53 -29 -102 -37 -108 -7 -7 -14 -9 -14 -6 0 4 -9 2 -20 -4 -14 -7
-20 -7 -20 0 0 5 6 10 13 10 9 0 14 12 15 32 1 24 -2 29 -9 18 -15 -22 -1 65
19 115 8 22 16 56 17 75 2 19 8 48 14 64 16 39 10 70 -7 39z m-15 -395 c-3 -8
-6 -5 -6 6 -1 11 2 17 5 13 3 -3 4 -12 1 -19z m583 2 c0 -5 -5 -10 -11 -10 -5
0 -7 5 -4 10 3 6 8 10 11 10 2 0 4 -4 4 -10z m-596 -26 c4 -15 2 -32 -5 -40
-6 -8 -8 -14 -5 -14 4 0 2 -9 -4 -20 -14 -27 -27 -25 -32 5 -3 13 -2 22 2 20
14 -9 32 25 28 50 -7 33 8 32 16 -1z m-94 -65 c0 -5 -4 -9 -8 -9 -5 0 -9 7 -9
15 0 8 4 12 9 9 4 -3 8 -9 8 -15z m37 -40 c-4 -15 -2 -19 9 -15 23 9 22 -38
-2 -61 -8 -8 -14 -19 -14 -24 0 -5 -7 -9 -16 -9 -14 0 -14 3 -3 16 10 13 10
17 -1 24 -8 5 -11 12 -7 17 5 4 12 1 17 -7 5 -8 12 -11 16 -7 4 4 1 14 -8 23
-16 16 -13 64 4 64 6 0 8 -9 5 -21z m-76 -92 c-16 -16 -25 -1 -10 16 8 8 16
11 18 5 2 -5 -2 -15 -8 -21z"/>
<path d="M6370 2109 c0 -5 5 -7 10 -4 6 3 10 8 10 11 0 2 -4 4 -10 4 -5 0 -10
-5 -10 -11z"/>
<path d="M6230 2669 c0 -8 26 -19 46 -19 27 0 14 18 -16 22 -16 3 -30 1 -30
-3z"/>
<path d="M4210 2614 c0 -11 -6 -14 -22 -9 -18 5 -20 4 -8 -4 21 -15 47 -13 53
3 6 15 -1 26 -15 26 -4 0 -8 -7 -8 -16z"/>
<path d="M3970 2591 c0 -10 25 -21 48 -21 15 1 14 3 -2 15 -22 17 -46 20 -46
6z"/>
<path d="M7155 2580 c-4 -6 -13 -9 -21 -6 -8 3 -14 0 -14 -7 0 -20 27 -53 36
-44 4 4 2 7 -5 7 -8 0 -6 8 5 25 9 14 14 28 11 31 -3 3 -8 0 -12 -6z"/>
<path d="M4285 2567 c17 -8 32 -13 34 -11 7 7 -3 12 -34 19 l-30 6 30 -14z"/>
<path d="M4335 2550 c3 -5 10 -10 16 -10 5 0 9 5 9 10 0 6 -7 10 -16 10 -8 0
-12 -4 -9 -10z"/>
<path d="M4185 2520 c-18 -8 -17 -9 8 -9 15 -1 27 4 27 9 0 12 -8 12 -35 0z"/>
<path d="M4512 2445 c-7 -13 -14 -14 -36 -5 -40 15 -54 0 -16 -18 25 -12 30
-20 26 -38 -6 -21 0 -25 56 -42 62 -19 63 -19 88 0 20 16 33 18 70 13 25 -4
50 -10 55 -14 21 -17 55 -19 66 -5 16 20 6 27 -66 49 -33 10 -65 22 -72 27
-13 10 -131 48 -150 48 -7 0 -16 -7 -21 -15z"/>
<path d="M3820 2441 c0 -10 36 -21 44 -14 3 3 3 10 0 14 -7 12 -44 12 -44 0z"/>
<path d="M4770 2410 c8 -5 22 -10 30 -10 13 0 13 1 0 10 -8 5 -22 10 -30 10
-13 0 -13 -1 0 -10z"/>
<path d="M4880 2410 c0 -5 5 -10 11 -10 5 0 7 5 4 10 -3 6 -8 10 -11 10 -2 0
-4 -4 -4 -10z"/>
<path d="M3940 2400 c0 -5 5 -10 11 -10 5 0 7 5 4 10 -3 6 -8 10 -11 10 -2 0
-4 -4 -4 -10z"/>
<path d="M4417 2313 c-20 -20 -37 -39 -37 -43 0 -4 52 -24 116 -44 l117 -38
38 38 c22 21 39 41 39 45 0 9 -97 47 -139 54 -19 3 -42 10 -52 15 -30 16 -44
12 -82 -27z m63 -22 c0 -12 -20 -25 -27 -18 -7 7 6 27 18 27 5 0 9 -4 9 -9z"/>
<path d="M4180 2321 c0 -12 5 -21 10 -21 6 0 10 6 10 14 0 8 -4 18 -10 21 -5
3 -10 -3 -10 -14z"/>
<path d="M4887 2316 c-7 -19 43 -32 54 -15 4 7 5 17 3 21 -9 13 -52 9 -57 -6z"/>
<path d="M5017 2294 c-8 -8 1 -24 14 -24 5 0 9 7 9 15 0 15 -12 20 -23 9z"/>
<path d="M5240 2285 c0 -8 5 -15 10 -15 6 0 10 7 10 15 0 8 -4 15 -10 15 -5 0
-10 -7 -10 -15z"/>
<path d="M4280 2279 c0 -5 5 -7 10 -4 6 3 10 8 10 11 0 2 -4 4 -10 4 -5 0 -10
-5 -10 -11z"/>
<path d="M4770 2268 c-21 -23 -21 -23 -1 -32 11 -5 27 -6 36 -3 22 9 31 37 14
48 -21 13 -26 11 -49 -13z"/>
<path d="M4950 2270 c0 -5 5 -10 10 -10 6 0 10 5 10 10 0 6 -4 10 -10 10 -5 0
-10 -4 -10 -10z"/>
<path d="M5072 2217 c-18 -18 -32 -37 -32 -42 0 -10 154 -67 308 -116 l73 -23
27 34 c15 19 27 39 27 44 0 5 -76 35 -170 67 -93 31 -177 60 -185 63 -10 4
-27 -6 -48 -27z"/>
<path d="M4659 2214 c-12 -16 -12 -17 5 -11 14 6 17 4 12 -10 -6 -15 -4 -15
14 2 22 20 27 30 9 19 -6 -3 -15 -1 -19 5 -5 9 -11 7 -21 -5z"/>
<path d="M4955 2210 c-3 -5 1 -10 10 -10 9 0 13 5 10 10 -3 6 -8 10 -10 10 -2
0 -7 -4 -10 -10z"/>
<path d="M4437 2198 c-28 -15 -20 -31 13 -26 21 3 30 0 30 -9 0 -17 52 -14 57
3 6 17 -80 44 -100 32z"/>
<path d="M4759 2174 l-22 -23 27 -7 c28 -7 56 9 56 31 0 24 -38 24 -61 -1z"/>
<path d="M4590 2143 c0 -5 11 -8 25 -8 14 0 25 3 25 8 0 4 -11 7 -25 7 -14 0
-25 -3 -25 -7z"/>
<path d="M4885 2130 c3 -5 8 -10 11 -10 2 0 4 5 4 10 0 6 -5 10 -11 10 -5 0
-7 -4 -4 -10z"/>
<path d="M5554 2118 c-4 -6 0 -17 10 -23 9 -7 14 -19 10 -29 -6 -17 11 -23 20
-7 5 8 -21 71 -29 71 -2 0 -7 -5 -11 -12z"/>
<path d="M4692 2108 c-19 -19 -14 -38 11 -38 25 0 62 32 50 43 -11 11 -48 8
-61 -5z"/>
<path d="M5750 2109 c0 -5 5 -7 10 -4 6 3 10 8 10 11 0 2 -4 4 -10 4 -5 0 -10
-5 -10 -11z"/>
<path d="M5490 2030 c0 -13 5 -18 15 -14 12 5 13 10 4 20 -15 19 -19 18 -19
-6z"/>
<path d="M6030 2035 c0 -8 7 -15 15 -15 8 0 15 7 15 15 0 8 -7 15 -15 15 -8 0
-15 -7 -15 -15z"/>
<path d="M5470 1910 c0 -5 5 -10 10 -10 6 0 10 5 10 10 0 6 -4 10 -10 10 -5 0
-10 -4 -10 -10z"/>
<path d="M6927 1633 c-12 -11 -8 -23 8 -23 8 0 15 7 15 15 0 16 -12 20 -23 8z"/>
<path d="M6942 1569 c-13 -23 -19 -39 -14 -35 14 8 53 76 44 76 -4 0 -18 -19
-30 -41z"/>
<path d="M7164 1445 c-17 -33 -52 -95 -78 -139 -26 -43 -45 -81 -42 -83 4 -4
120 167 145 215 7 13 11 33 9 45 -3 17 -10 9 -34 -38z"/>
<path d="M6810 1440 c0 -5 5 -10 10 -10 6 0 10 5 10 10 0 6 -4 10 -10 10 -5 0
-10 -4 -10 -10z"/>
<path d="M6847 1410 c-3 -11 -3 -20 -1 -20 2 0 8 9 14 20 6 11 7 20 2 20 -6 0
-12 -9 -15 -20z"/>
<path d="M6790 1390 c0 -5 7 -7 15 -4 8 4 15 8 15 10 0 2 -7 4 -15 4 -8 0 -15
-4 -15 -10z"/>
<path d="M6811 1353 c-13 -28 -13 -28 8 -9 22 20 27 36 13 36 -5 0 -14 -12
-21 -27z"/>
</g>
</svg>
